#N canvas 20 181 800 697 10;
#X obj 66 51 adc~;
#X obj 113 519 textfile;
#X obj 68 87 env~ 256 2048;
#X obj 482 149 metro 10000;
#X msg 480 105 1;
#X obj 479 14 loadbang;
#X msg 543 80 \; pd dsp 1;
#X obj 480 39 trigger b b;
#X obj 154 196 date, f 20;
#X obj 115 126 trigger 0 b b, f 35;
#X obj 321 192 time, f 16;
#X obj 111 264 pack 0 0 0 0 0 0 0 0, f 52;
#X obj 252 502 print;
#X msg 32 452 clear;
#X msg 482 264 write /Users/luca/Desktop/log.csv cr;
#X msg 111 321 add \$2 \$3 \$4 \$5 \$6 \$7 \$8 \\\, \$1;
#X connect 0 0 2 0;
#X connect 2 0 9 0;
#X connect 3 0 14 0;
#X connect 4 0 3 0;
#X connect 5 0 7 0;
#X connect 7 0 4 0;
#X connect 7 1 6 0;
#X connect 8 0 11 1;
#X connect 8 1 11 2;
#X connect 8 2 11 3;
#X connect 9 0 11 0;
#X connect 9 1 8 0;
#X connect 9 2 10 0;
#X connect 10 0 11 4;
#X connect 10 1 11 5;
#X connect 10 2 11 6;
#X connect 10 3 11 7;
#X connect 11 0 15 0;
#X connect 13 0 1 0;
#X connect 14 0 1 0;
#X connect 15 0 1 0;
#X connect 15 0 12 0;
